<?xml version="1.0" encoding="UTF-8"?>
<svg xmlns="http://www.w3.org/2000/svg" viewBox="0 0 500 348.65">
  <defs>
    <style>
      .cls-1, .cls-2, .cls-3, .cls-4 {
        fill: #fff;
      }

      .cls-5 {
        fill: none;
      }

      .cls-2 {
        opacity: .6;
      }

      .cls-2, .cls-6, .cls-3, .cls-4 {
        isolation: isolate;
      }

      .cls-2, .cls-3 {
        mix-blend-mode: overlay;
      }

      .cls-4 {
        opacity: .7;
      }

      .cls-4, .cls-7 {
        mix-blend-mode: multiply;
      }

      .cls-7 {
        opacity: .3;
      }
    </style>
  </defs>
  <g class="cls-6">
    <g id="Layer_1" data-name="Layer 1">
      <g id="Objects">
        <g>
          <g>
            <path class="cls-1" d="M366.83,229.25c-2.35-.67-4.25-2.45-5.08-4.74-.86-2.29-.55-4.86.76-6.91,1.53-2.32,2.97-4.62,4.37-6.91l.55-.89c1.31-2.17,2.57-4.31,3.76-6.42l.61-1.07c1.19-2.11,2.32-4.22,3.39-6.33l.4-.79c1.1-2.14,2.14-4.28,3.12-6.39,0,0,0-.03.03-.06.98-2.14,1.96-4.34,2.84-6.51l.12-.31c.79-1.99,1.59-4.04,2.35-6.18l.18-.55c.7-2.02,1.35-3.98,1.9-5.9l.06-.24.06-.21c.61-2.05,1.13-4.04,1.53-5.87.52-2.2.92-4.28,1.25-6.24,1.65-10.21,1.71-19.97.15-29.02-.31-1.77,0-3.58.92-5.14,6.27-10.95,21.71-30.67,33.3-37.7,5.87-3.55,13.39-6.24,21.22-7.58,6.48-1.1,15.93-1.71,24.06,1.62,7.4,3.03,16.33,12.08,18.41,24.83,1.25,7.67.37,18.32-7.83,30.88,5.32,1.41,9.39,5.05,11.5,10.55,2.08,5.41,1.5,11.22-1.65,16.79-3.76,6.57-10.82,12.26-18.9,16.54.86.76,1.65,1.62,2.39,2.57,3.33,4.34,6.33,12.11,1.65,24.55,0,.03,0,.06-.03.09-5.01,13.18-20.06,22.23-43.54,26.2h0c-20.91,3.55-45.96,2.48-63.84-2.72l-.03.06ZM459.78,200.23c.98-2.63,2.35-7.37.58-9.72-2.6-3.36-11.34-4.13-16.85-3.58-4.25.43-7.98-2.63-8.41-6.88-.46-4.25,2.66-8.07,6.91-8.5.89-.09,1.77-.21,2.69-.37,12.84-2.17,27.03-9.88,30.97-16.85,1.22-2.14.83-3.15.67-3.61-.37-.98-.67-1.74-3.94-1.16-4.31.73-9.42,3.55-10.98,4.59-3.39,2.23-7.95,1.44-10.4-1.8-2.45-3.24-1.96-7.83,1.1-10.49,14.65-12.69,21.43-25.01,19.69-35.59-1.25-7.55-6.6-12.05-9.02-13.03-3.64-1.5-9.33-1.74-15.62-.67-5.84.98-11.59,3.03-15.78,5.53-7.31,4.43-20,19.39-26.54,29.9,1.38,9.91,1.16,20.39-.58,31.22-.37,2.29-.86,4.71-1.44,7.25-.49,2.11-1.07,4.37-1.8,6.88l-.09.37c-.64,2.14-1.35,4.37-2.14,6.6l-.21.64c-.83,2.32-1.68,4.62-2.57,6.79l-.12.31c-.98,2.39-2.02,4.8-3.09,7.12,0,0,0,.06-.03.06-1.01,2.17-2.11,4.43-3.39,6.97l-.46.89c-1.16,2.23-2.35,4.49-3.64,6.76l-.64,1.13c-1.07,1.9-2.2,3.82-3.33,5.75,14.4,2.45,31.98,2.54,46.78.06,17.28-2.94,28.8-8.93,31.68-16.48v-.09Z"/>
            <path class="cls-1" d="M99.49,287.95c-4.83.64-9.45.92-13.7.86-3.42-.06-6.73-.34-9.72-.83-3.27-.55-6.33-1.35-9.08-2.42-5.23-2.02-9.48-4.98-12.66-8.78-.64-.76-1.19-1.5-1.77-2.26l-.43-.58c-.46-.67-.92-1.31-1.28-1.9-.06-.06-.15-.28-.21-.34-.46-.76-.86-1.5-1.25-2.26l-.24-.55c-.31-.64-.58-1.28-.83-1.9-.03-.09-.15-.37-.18-.46-.28-.76-.49-1.5-.67-2.2l-.15-.58c-.15-.61-.24-1.25-.37-1.96,0-.09-.06-.37-.06-.46-.09-.76-.12-1.53-.12-2.29v-.4c0-.64.06-1.28.12-1.77,0-.21.06-.43.09-.67.12-.73.24-1.44.43-2.08,0-.09.06-.21.09-.34.15-.58.37-1.13.52-1.59.06-.18.15-.4.24-.61.24-.58.52-1.19.83-1.74v-.06l-1.59-.24-.24-.03-2.81-.58-.31-.06-.86-.21c-.4-.09-.8-.18-1.13-.28-.37-.09-.73-.18-1.1-.31-.55-.15-1.07-.31-1.56-.46l-.86-.28c-.37-.12-.73-.24-1.07-.37l-.61-.21-.24-.09c-.37-.12-.7-.28-1.04-.4l-.83-.34c-.34-.15-.67-.31-1.19-.52l-.58-.28c-.4-.18-.8-.4-1.25-.64l-.49-.24c-.58-.31-1.13-.64-1.65-.95l-.46-.31c-.4-.24-.8-.52-1.13-.76l-.64-.49c-.34-.24-.64-.49-.95-.73l-.61-.52c-.31-.28-.61-.55-.86-.8-.18-.18-.4-.37-.58-.55-.34-.34-.64-.67-1.01-1.1-.06-.06-.28-.31-.34-.37-.43-.52-.86-1.07-1.25-1.65-.06-.09-.15-.24-.24-.37-.28-.46-.55-.92-.76-1.31-.12-.21-.21-.43-.34-.7-.18-.4-.4-.83-.58-1.31l-.28-.73c-.15-.43-.28-.86-.4-1.35-.06-.24-.12-.46-.18-.73-.09-.46-.18-.95-.24-1.47-.03-.21-.06-.46-.09-.7-.06-.7-.09-1.44-.06-2.2,0-.76.09-1.47.21-2.32,0-.09.03-.21.06-.37.09-.55.21-1.07.4-1.77.03-.12.09-.28.12-.4.15-.49.31-.98.58-1.62.03-.09.09-.18.12-.31.21-.52.46-.98.64-1.31.09-.15.18-.31.28-.46.28-.49.58-.95.92-1.38.06-.09.12-.18.21-.28h0c.34-.43.7-.86,1.07-1.22.06-.06.12-.12.18-.18.43-.43.86-.83,1.31-1.19.4-.34.83-.64,1.25-.92-11.86-9.14-16.21-18.93-17.52-26.57-2.2-12.72,3.21-24.19,9.2-29.51,6.57-5.81,15.69-8.35,22.17-9.45,7.8-1.31,15.81-1.25,22.54.15,9.3,1.99,22.69,9.48,32.14,15.84,2.05,1.38,3.3,3.64,3.39,6.12.46,12.14,4.1,24.52,10.82,36.78,7.22,13.24,19.05,26.82,35.16,40.42,1.93,1.62,3.91,3.24,5.93,4.86l.86.67c2.02,1.59,4.07,3.18,6.21,4.77,2.08,1.56,3.24,4.04,3.09,6.6-.15,2.57-1.56,4.92-3.79,6.24-12.17,7.19-27.76,13.39-42.72,17.03-2.39.58-4.77,1.1-7.09,1.53-.8.15-1.62.31-2.42.43-1.56.28-3.09.49-4.62.7l.12-.09ZM134.07,256.92c-17.55-14.83-30.58-29.93-38.74-44.83-7.12-13.06-11.31-26.33-12.44-39.54-9.2-5.87-18.41-10.37-23.57-11.47-4.8-1.01-10.89-1.04-16.73-.03-6.27,1.07-11.56,3.18-14.52,5.78-1.96,1.71-5.53,7.74-4.22,15.29,1.83,10.58,12.32,19.97,30.33,27.12,3.76,1.5,5.72,5.66,4.49,9.51-1.22,3.85-5.26,6.12-9.17,5.17-1.83-.46-7.55-1.44-11.89-.7-1.59.28-2.42.67-2.75.89,0,0-.24.21-.28.21l-.06.06-.03.03h0v.03s-.03.09-.06.15v.15s-.06.06-.06.09v.15s-.06.18-.06.28v.55h0c0,.06,0,.21.03.24v.24l.09.24.21.49s.09.18.24.4c0,0,.03.06.06.09.06.09.12.18.18.24,0,0,.15.18.18.18.09.12.21.24.31.34l-5.5,5.41,5.72-5.2s.24.21.31.31l.24.21s.31.24.4.31c0,0,.31.21.34.24.18.12.37.24.52.34.06.03.24.15.31.21.31.18.61.37.98.55.03,0,.24.12.28.15.24.12.46.24.73.37l4.31,1.68c.4.12.8.24,1.16.34l2.26.58-1.68,7.52,1.99-7.46,5.35.92c.64.09,1.31.15,1.96.21h.24l6.7.24h.21c3-.06,5.87-.31,8.5-.76h0c.89-.15,1.74-.31,2.69-.55h.06c4.16-.89,8.23,1.65,9.17,5.78.98,4.13-1.65,8.29-5.78,9.26-.28.06-2.84.7-5.9,2.02,0,0-.06,0-.09.03-.28.12-.55.24-.83.37l-.28.12c-.24.12-.52.24-.89.43-.31.15-.58.31-.8.43l-.31.18c-.21.12-.46.28-.67.4,0,0-.18.09-.21.12-.24.15-.52.34-.76.49l-2.02-2.97h-.12l1.99,3.09c-.21.15-.43.31-.55.4l-.24.18c-.21.18-.43.34-.58.49,0,0-.15.15-.18.15-.15.15-.34.31-.64.61-.12.12-.24.24-.43.46-.03.06-.09.09-.12.15-.12.12-.21.28-.4.55-.09.15-.21.31-.28.46v.06h0s-.12.28-.24.55c-.03.12-.09.21-.09.24,0,.06-.03.15-.06.24,0,.12-.03.24-.06.46v.43c0,.18,0,.34.06.67,0,.18.06.37.09.46l.06.28c.06.28.15.55.18.67,0,.06.12.28.15.34.09.28.21.52.37.86l.12.21c.18.37.4.76.55,1.04.03.06.15.21.18.28.24.37.49.76.76,1.16l.28.37c.37.49.73.98,1.16,1.5,1.5,1.77,3.64,3.21,6.36,4.28,1.77.67,3.79,1.22,6.02,1.59,2.26.37,4.77.58,7.43.61,3.52.06,7.4-.18,11.5-.73,2.05-.28,4.13-.61,6.18-.98,2.08-.4,4.19-.86,6.33-1.38,9.6-2.32,19.45-5.81,28.22-9.91-1.41-1.16-2.81-2.29-4.16-3.46l-.09-.06Z"/>
          </g>
          <g>
            <g>
              <path class="cls-1" d="M396.67,157.97c1.93-11.86,1.74-22.35.15-31.56,6.48-11.34,21.22-29.23,30.58-34.92,10.37-6.3,27.92-9.69,38.34-5.41,10.43,4.28,29.45,28.65-8.53,61.61,0,0,20.98-13.7,26.36.28,5.38,13.97-21.13,29.23-40.85,31.28,0,0,34.7-3.94,24.28,23.7-9.26,24.58-67.82,27.67-98.03,18.87,15.32-23.45,24.61-44.83,27.7-63.88v.03Z"/>
              <g class="cls-7">
                <path class="cls-1" d="M368.97,221.85c13.55-20.73,22.35-39.84,26.36-57.15,20.64,30.73,54.64,37.06,71.67,38.25h0c-9.26,24.58-67.82,27.67-98.03,18.87v.03Z"/>
              </g>
            </g>
            <g>
              <path class="cls-1" d="M51.3,216.43c-46.72-18.62-36.78-47.91-28.34-55.38s26.11-10.03,37.98-7.52c7.55,1.59,19.54,8.04,29.45,14.68.46,11.96,3.73,25.5,11.74,40.18,9.66,17.67,26.51,35.47,50.33,53.23-27.67,16.36-76.69,28.77-92.19,10.21-18.93-22.66,15.14-30.39,15.14-30.39-19.29,4.56-49.35-1.13-48.86-16.08.49-14.95,24.8-8.93,24.8-8.93h-.03Z"/>
              <g class="cls-7">
                <path class="cls-1" d="M68.09,243.92c25.65,10.18,52.87,9.45,71,7.09,4.19,3.55,8.62,7.06,13.36,10.61-27.67,16.36-76.69,28.77-92.19,10.21-13.03-15.59-.98-24.13,7.83-27.92Z"/>
                <path class="cls-1" d="M26.5,225.36c.12-3.76,1.74-6.21,4.13-7.74,10.3,11.83,22.35,19.88,34.83,25.23-18.22,1.1-39.38-4.92-38.96-17.49Z"/>
              </g>
            </g>
          </g>
          <g>
            <path class="cls-1" d="M387.74,57.28c-23.33-24.09-57.94-34.25-78.64-31.56-1.8.24-3.58.49-5.35.8-33.21,5.69-59.5,24.16-68.25,46.72-15.75-18.38-46.72-27.03-79.93-21.34-1.74.31-3.55.64-5.32,1.01-20.43,4.37-49.69,25.47-63.66,55.93-8.84,19.29-15.17,50.09,5.08,87.11,16.88,30.85,53.08,61.86,107.66,92.16,40.33,22.41,76.32,36.08,76.69,36.2.83.31,1.68.4,2.51.24.83-.15,1.62-.49,2.29-1.07.31-.24,29.69-25.1,60.27-59.66,41.37-46.72,65.19-88,70.85-122.74,6.76-41.65-9.42-68.58-24.19-83.84v.03Z"/>
            <path class="cls-2" d="M122.39,96.14c-1.59-9.42-2.42-18.77-2.6-28.01,10.49-7.95,21.37-13.27,30.49-15.23,1.77-.37,3.55-.73,5.32-1.01,33.21-5.69,64.15,2.97,79.93,21.34,8.75-22.57,35.04-41.03,68.25-46.72,1.74-.31,3.55-.58,5.35-.8,20.73-2.69,55.34,7.46,78.64,31.56,14.77,15.26,30.94,42.2,24.19,83.84-3.82,23.57-16.05,50.15-36.45,79.41-17.37,10.89-36.94,18.59-58.19,22.2-91.33,15.47-178.6-50.18-194.93-146.62v.03Z"/>
            <g>
              <path class="cls-1" d="M222.32,74.74c-13.61-15.9-38.59-24.49-66.57-22.87,27.98-4.74,54.34.73,71.31,13.58-1.9,3-3.52,6.08-4.77,9.3h.03Z"/>
              <path class="cls-1" d="M327.93,265.36c41.37-46.72,65.19-88,70.85-122.74,6.76-41.65-9.42-68.58-24.19-83.84-21.1-21.8-51.43-32.17-72.38-31.95.52-.09,1.04-.21,1.56-.31,1.74-.31,3.55-.58,5.35-.8,20.73-2.69,55.34,7.46,78.64,31.56,14.77,15.26,30.94,42.2,24.19,83.84-5.63,34.7-29.48,76.01-70.85,122.74-30.58,34.55-59.96,59.41-60.27,59.66-.67.55-1.47.92-2.29,1.07-.83.15-1.68.06-2.51-.24-.09-.03-1.96-.73-5.23-2.08,8.41-7.37,32.35-28.99,57.12-56.93v.03Z"/>
            </g>
            <path class="cls-4" d="M84.48,113.91c24.19,101.79,119.16,169.34,218.38,152.52,17.7-3,34.37-8.47,49.78-16.05-3.7,4.43-7.49,8.93-11.53,13.48-30.58,34.55-59.96,59.41-60.27,59.66-.67.55-1.47.92-2.29,1.07-.83.15-1.68.06-2.51-.24-.37-.12-36.36-13.82-76.69-36.2-54.55-30.3-90.78-61.31-107.66-92.16-18.56-33.94-14.8-62.65-7.22-82.07Z"/>
            <ellipse class="cls-3" cx="248.24" cy="159.14" rx="99.86" ry="57.58" transform="translate(-23.08 43.67) rotate(-9.61)"/>
            <g>
              <path class="cls-1" d="M386.94,112.38c.28,0,.55-.09.79-.18,1.65-.64,2.48-2.48,1.83-4.13-.12-.28-2.72-6.97-7.55-13.82-1.01-1.44-3-1.8-4.46-.76-1.44,1.01-1.8,3.03-.76,4.46,4.4,6.24,6.79,12.38,6.82,12.44.52,1.38,1.93,2.17,3.33,2.02v-.03Z"/>
              <path class="cls-1" d="M373.19,89.78c.52-.06,1.04-.24,1.47-.55,1.44-1.01,1.8-3,.79-4.46-.89-1.25-21.77-30.67-51.16-39.9-1.68-.52-3.49.4-4.01,2.08s.4,3.49,2.08,4.01c27.31,8.59,47.64,37.18,47.82,37.49.7.98,1.83,1.47,2.97,1.35h.03Z"/>
            </g>
            <path class="cls-1" d="M274.48,328.47c-.37-.15-36.66-13.94-77.27-36.48-55.28-30.7-92.1-62.29-109.37-93.9-21.13-38.62-14.49-70.85-5.23-91.09,14.59-31.8,45.28-53.82,66.75-58.4,1.83-.4,3.67-.73,5.47-1.07h.24c31.13-5.32,61.28,1.74,79.1,18.04,11.41-21.34,37.61-38.07,68.98-43.42,1.77-.31,3.58-.58,5.35-.8,21.8-2.81,58.07,7.74,82.37,32.87,15.47,15.99,32.44,44.15,25.38,87.63-5.78,35.56-29.97,77.6-71.89,124.94-30.73,34.7-60.45,59.87-60.73,60.11-1.25,1.07-2.78,1.77-4.4,2.05h0c-1.62.28-3.27.12-4.8-.46l.03-.03ZM304.51,30.86c-31.13,5.32-56.6,22.6-64.88,43.97-.55,1.44-1.83,2.51-3.36,2.75h0c-1.53.24-3.09-.31-4.1-1.47-14.86-17.37-44.55-25.16-75.59-19.91h-.21c-1.71.34-3.42.67-5.14,1.04-19.39,4.16-47.21,24.28-60.57,53.45-8.44,18.38-14.4,47.73,4.95,83.17,16.45,30.12,52.1,60.54,105.92,90.42,39.96,22.2,75.74,35.81,76.11,35.96h.18l.18-.09c.28-.24,29.29-24.77,59.81-59.2,40.79-46.08,64.27-86.62,69.78-120.5,6.48-39.84-8.93-65.53-22.99-80.08-22.32-23.06-55.25-32.81-74.91-30.27-1.68.21-3.36.46-5.17.76h0Z"/>
            <g>
              <g>
                <g>
                  <path class="cls-1" d="M186.97,168.4c-1.31-7.83,3.98-15.26,11.8-16.6,7.83-1.31,15.29,3.94,16.6,11.77.21,1.31-.15,2.08-1.13,2.23h0l-25.5,4.31h0c-.98.15-1.56-.43-1.8-1.74l.03.03Z"/>
                  <path class="cls-1" d="M293.93,135.62c7.83-1.31,15.29,3.88,16.57,11.62.12.67.37,2.23-1.1,2.48h0l-25.47,4.31h0c-1.47.24-1.74-1.31-1.83-1.93-1.31-7.77,3.98-15.17,11.83-16.48h0Z"/>
                </g>
                <path class="cls-1" d="M304.91,142.87c-.31-1.77-1.99-2.97-3.76-2.69-1.77.31-2.97,1.99-2.69,3.76.31,1.77,1.99,2.97,3.76,2.69,1.77-.31,2.97-1.99,2.69-3.76Z"/>
                <path class="cls-1" d="M209.9,159.65c-.31-1.77-1.99-2.97-3.76-2.69-1.77.31-2.97,1.99-2.69,3.76.31,1.77,1.99,2.97,3.76,2.69,1.77-.31,2.97-1.99,2.69-3.76Z"/>
              </g>
              <path class="cls-1" d="M263.9,164.58c-.83.15-1.47.83-1.56,1.68-.43,5.14-4.25,9.3-9.3,10.15-5.08.86-10.06-1.83-12.14-6.54-.43-.95-1.53-1.38-2.48-.95s-1.38,1.53-.95,2.48c2.78,6.27,9.42,9.85,16.18,8.71,6.76-1.13,11.86-6.73,12.41-13.55.09-1.04-.67-1.93-1.71-2.02h-.46v.03Z"/>
              <g>
                <path class="cls-1" d="M317.38,150.33c.61,3.55,3.98,5.96,7.52,5.35s5.96-3.98,5.35-7.52c-.61-3.55-3.98-5.96-7.52-5.35s-5.96,3.98-5.35,7.52Z"/>
                <path class="cls-1" d="M169.33,175.4c.61,3.55,3.98,5.96,7.52,5.35s5.96-3.98,5.35-7.52-3.98-5.96-7.52-5.35c-3.55.61-5.96,3.98-5.35,7.52Z"/>
              </g>
            </g>
          </g>
        </g>
      </g>
      <rect class="cls-5" width="500" height="348.65"/>
    </g>
  </g>
</svg>